# xmcd CD database file
#
# Track frame offsets:
#	150
#	9295
#	19968
#	26140
#	32318
#	40550
#	55505
#	66211
#	70288
#	87705
#	106345
#	110333
#	130400
#	147350
#	167513
#	187443
#	204305
#	220620
#	239833
#	261485
#	274865
#	286893
#
# Disc length: 3960 seconds
#
# Revision: 2
# Processed by: cddbd v1.5.2PL0 Copyright (c) Steve Scherf et al.
# Submitted via: CDex 1.51
#
DISCID=470f7616
DTITLE=Various Artist - DefQon 1 2009
DYEAR=2009
DGENRE=Hardtrance
TTITLE0=Kay D Smith and Marc Tall - Hoipolloi (Artento Divini Remix)
TTITLE1=Shy Brothers - Shake 'Em (Lee Haslma Mix)
TTITLE2=Russo - Simplicious
TTITLE3=Wyrus and Dastin - Atom Breaker
TTITLE4=Kutski vs. BRK3 - 4th Dimension
TTITLE5=Fausto - U Turn
TTITLE6=Scot Project - F2 (Future Is Now)(Kamui Mix)
TTITLE7=Tom Sigmund - Fly Into Eternity (Fausto's Non Vocal Mix)
TTITLE8=Kamui - Thrill Kill
TTITLE9=Vandall vs. Dr. Willis - Tech-Ho (Scot Project Remix)
TTITLE10=McShane meets Vandall feat. Leomie - Take Me Away
TTITLE11=Ghost - The First Rebirth (I Love Techno Mix)
TTITLE12=Organ Donors - 4 Tribes (Will Atkinson Under The Knife Remix)
TTITLE13=Neal Thomas - Pyrotechno
TTITLE14=Pete Kingwell - Only You (Louk Mix)
TTITLE15=Fausto - Get low
TTITLE16=Vandall and Ryan B - Release
TTITLE17=Lisa Lashes vs. Alex Kidd and Kidd Kaos - Nu Religion (Log:One and Wragg Remix)
TTITLE18=Logger and Genetic - Industry Standard (Sully's Psychotic Mix)
TTITLE19=Fausto vs. Tommy Pulse - Melancholika
TTITLE20=Fausto meets Thilo and Evanti - Short Fuse
TTITLE21=Mark EG meets Thilo and Evanti - The Ride
EXTD=YEAR: 2009
EXTT0=
EXTT1=
EXTT2=
EXTT3=
EXTT4=
EXTT5=
EXTT6=
EXTT7=
EXTT8=
EXTT9=
EXTT10=
EXTT11=
EXTT12=
EXTT13=
EXTT14=
EXTT15=
EXTT16=
EXTT17=
EXTT18=
EXTT19=
EXTT20=
EXTT21=
PLAYORDER=
